<?xml version="1.0" encoding="UTF-8" standalone="no"?> <svg xmlns="http://www.w3.org/2000/svg" width="42" height="42" viewBox="0 0 42 42">
  <defs>
    <style>
      .a {
        fill: #d3d4ed;
      }
    </style>
  </defs>
  <title>12 Comment_3</title>
  <path class="a" d="M37,0H5A5,5,0,0,0,0,5V29a5,5,0,0,0,5,5h5v6a2,2,0,0,0,3.41,1.41L20.82,34H37a5,5,0,0,0,5-5V5A5,5,0,0,0,37,0ZM21,14.5A2.5,2.5,0,1,1,18.5,17,2.5,2.5,0,0,1,21,14.5Zm-8.5,0A2.5,2.5,0,1,1,10,17,2.5,2.5,0,0,1,12.5,14.5Zm17,5A2.5,2.5,0,1,1,32,17,2.5,2.5,0,0,1,29.5,19.5Z"/>
</svg>
